<svg id="レイヤー_1" data-name="レイヤー 1" xmlns="http://www.w3.org/2000/svg" viewBox="0 0 429.02 378.18"><defs><style>.cls-1{fill:#d02328;}.cls-2{fill:#1a6aa6;}.cls-3{fill:#2998c4;}.cls-4{fill:#156235;}.cls-5{fill:#ecc72e;}.cls-6{fill:#e38c2c;}</style></defs><path class="cls-1" d="M111.7,313.6a28.91,28.91,0,0,1-14.48-54L113.94,250l-16.72-9.65a28.91,28.91,0,0,1,28.91-50.07L186.21,225a28.9,28.9,0,0,1,0,50.06l-60.08,34.69A28.75,28.75,0,0,1,111.7,313.6Z" transform="translate(-35.49 -60.91)"/><circle class="cls-1" cx="24.74" cy="189.09" r="24.74"/><path class="cls-2" d="M210.88,416A28.9,28.9,0,0,1,182,387.14V367.83l-16.72,9.65a28.9,28.9,0,0,1-28.9-50.06l60.07-34.69a28.91,28.91,0,0,1,43.36,25v69.38A28.9,28.9,0,0,1,210.88,416Z" transform="translate(-35.49 -60.91)"/><circle class="cls-2" cx="119.63" cy="353.43" r="24.74"/><path class="cls-3" d="M288,416a28.9,28.9,0,0,1-28.9-28.9V317.76a28.9,28.9,0,0,1,43.35-25l60.08,34.69a28.9,28.9,0,1,1-28.9,50.06l-16.72-9.65v19.31A28.9,28.9,0,0,1,288,416Z" transform="translate(-35.49 -60.91)"/><circle class="cls-3" cx="308.26" cy="353.43" r="24.74"/><path class="cls-4" d="M388.3,313.6a28.75,28.75,0,0,1-14.43-3.88L313.79,275a28.9,28.9,0,0,1,0-50.06l60.08-34.69a28.91,28.91,0,1,1,28.91,50.07L386.06,250l16.72,9.65a28.91,28.91,0,0,1-14.48,54Z" transform="translate(-35.49 -60.91)"/><circle class="cls-4" cx="404.28" cy="189.09" r="24.74"/><path class="cls-5" d="M289.12,211.14a28.9,28.9,0,0,1-28.9-28.9V112.87a28.91,28.91,0,1,1,57.81,0v19.3l16.72-9.65a28.9,28.9,0,0,1,28.9,50.06l-60.07,34.69A29,29,0,0,1,289.12,211.14Z" transform="translate(-35.49 -60.91)"/><circle class="cls-5" cx="309.39" cy="24.75" r="24.74"/><path class="cls-6" d="M212,211.14a28.89,28.89,0,0,1-14.45-3.87l-60.08-34.69a28.9,28.9,0,1,1,28.9-50.06l16.72,9.65v-19.3a28.91,28.91,0,1,1,57.81,0v69.37a28.9,28.9,0,0,1-28.9,28.9Z" transform="translate(-35.49 -60.91)"/><circle class="cls-6" cx="120.76" cy="24.75" r="24.74"/></svg>